<?xml version="1.0" encoding="UTF-8" standalone="no"?>
<svg
   role="img"
   viewBox="0 0 24 24"
   version="1.1"
   id="svg6"
   xmlns="http://www.w3.org/2000/svg"
   xmlns:svg="http://www.w3.org/2000/svg"
   xmlns:rdf="http://www.w3.org/1999/02/22-rdf-syntax-ns#"
   xmlns:cc="http://creativecommons.org/ns#"
   xmlns:dc="http://purl.org/dc/elements/1.1/">
  <defs
     id="defs10" />
  <title
     id="title2">Windows Terminal</title>
  <path
     id="rect849"
     style="stroke-width:1.35176;stroke-linecap:round;stroke-linejoin:round;stroke-dasharray:5.40706, 5.40706;paint-order:stroke fill markers"
     d="m 1.128623,3.1146173 h 21.742754 c 0.47795,0 0.862725,0.3847755 0.862725,0.8627253 V 20.022657 c 0,0.47795 -0.384775,0.862726 -0.862725,0.862726 H 1.128623 c -0.47794978,0 -0.86272525,-0.384776 -0.86272525,-0.862726 V 3.9773426 c 0,-0.4779498 0.38477547,-0.8627253 0.86272525,-0.8627253 z" />
  <path
     style="fill:#ffffff;stroke-width:0.940868"
     d="M 8.3917722,6.3547934 V 3.5321902 H 15.603523 V 6.3547934 Z M 7.9213383,3.5321902 H 1.6504548 c -0.5174773,0 -0.94086779,0.4233905 -0.94086779,0.9408676 V 6.3547934 H 7.9213383 Z m 14.4282067,0 h -6.275588 v 2.8226031 h 7.216456 V 4.4730578 c 0,-0.5174771 -0.423391,-0.9408676 -0.940868,-0.9408676 z M 0.70958701,6.8252272 H 23.290413 V 19.526942 c 0,0.517477 -0.423391,0.940868 -0.940868,0.940868 H 1.6504548 c -0.5174773,0 -0.94086779,-0.423391 -0.94086779,-0.940868 z M 11.529566,17.645206 c 0,0.282261 0.188174,0.470434 0.470434,0.470434 h 7.526942 c 0.28226,0 0.470434,-0.188173 0.470434,-0.470434 v -1.411301 c 0,-0.28226 -0.188174,-0.470434 -0.470434,-0.470434 H 12 c -0.28226,0 -0.470434,0.188174 -0.470434,0.470434 z"
     id="path4" />
  <g
     aria-label="$"
     id="text2185"
     style="font-size:10.3691px;line-height:1.25;font-family:Satisfy;-inkscape-font-specification:Satisfy;stroke-width:0.25923"
     transform="translate(0.93207259)">
    <path
       id="path9046"
       style="font-weight:500;font-family:'Roboto Mono';-inkscape-font-specification:'Roboto Mono Medium'"
       d="M 5.4023438 8.5664062 C 5.3095352 8.5757752 5.2363281 8.6546406 5.2363281 8.75 L 5.2363281 9.7207031 C 4.9788681 9.7581267 4.7405285 9.8223517 4.5253906 9.9179688 C 4.2857402 10.022605 4.0828304 10.161841 3.9140625 10.333984 C 3.7452946 10.509503 3.6120881 10.714897 3.5175781 10.951172 C 3.4264435 11.184071 3.3808594 11.443032 3.3808594 11.726562 C 3.3808594 12.043846 3.4319424 12.320366 3.5332031 12.556641 C 3.6378392 12.789541 3.7861202 12.994403 3.9785156 13.169922 C 4.1675357 13.348816 4.3954561 13.505611 4.6621094 13.640625 C 4.932138 13.772264 5.2336681 13.89252 5.5644531 14.003906 C 5.7939775 14.08154 5.9883734 14.163663 6.1503906 14.248047 C 6.3157832 14.332431 6.4495205 14.423599 6.5507812 14.521484 C 6.652042 14.622745 6.7256516 14.731472 6.7695312 14.849609 C 6.8167859 14.967747 6.8398434 15.100953 6.8398438 15.246094 C 6.8398438 15.39461 6.8143025 15.529409 6.7636719 15.654297 C 6.7130412 15.779185 6.6389007 15.88685 6.5410156 15.974609 C 6.4363796 16.069119 6.3051262 16.140776 6.1464844 16.191406 C 5.9912179 16.24204 5.8118965 16.267578 5.609375 16.267578 C 5.4507332 16.267578 5.2939383 16.247538 5.1386719 16.207031 C 4.9834057 16.163151 4.8441691 16.089011 4.7226562 15.984375 C 4.6011433 15.883114 4.5014613 15.746362 4.4238281 15.574219 C 4.3461949 15.3987 4.3085938 15.181777 4.3085938 14.921875 L 3.0976562 14.921875 C 3.0976562 15.316792 3.1572531 15.655923 3.2753906 15.939453 C 3.3935282 16.219608 3.552807 16.451074 3.7519531 16.636719 C 3.9510992 16.822363 4.1790196 16.964615 4.4355469 17.0625 C 4.6660535 17.149314 4.9027027 17.207222 5.1464844 17.238281 L 5.1464844 18.15625 C 5.1464844 18.257964 5.2283614 18.339844 5.3300781 18.339844 L 5.9335938 18.339844 C 6.0353108 18.339844 6.1171875 18.257967 6.1171875 18.15625 L 6.1171875 17.238281 C 6.3877106 17.204504 6.6351101 17.143651 6.859375 17.052734 C 7.1091515 16.948098 7.3225283 16.808862 7.4980469 16.636719 C 7.6769408 16.467951 7.8136931 16.268056 7.9082031 16.035156 C 8.0027131 15.798881 8.0488281 15.531406 8.0488281 15.234375 C 8.0488281 14.920466 7.9996982 14.646962 7.8984375 14.414062 C 7.8005521 14.181162 7.6558169 13.975769 7.4667969 13.796875 C 7.2777768 13.621356 7.0498564 13.467576 6.7832031 13.335938 C 6.5165499 13.200923 6.2194569 13.075169 5.8886719 12.957031 C 5.6490214 12.872647 5.4446894 12.787509 5.2792969 12.703125 C 5.1139043 12.618741 4.9821201 12.527573 4.8808594 12.429688 C 4.7762233 12.335177 4.6995988 12.229996 4.6523438 12.115234 C 4.6084642 12.000472 4.5859375 11.869219 4.5859375 11.720703 C 4.5859375 11.572188 4.6084644 11.43792 4.6523438 11.316406 C 4.6962231 11.191518 4.7613189 11.083322 4.8457031 10.992188 C 4.9368378 10.897677 5.0510634 10.826021 5.1894531 10.775391 C 5.3312181 10.721384 5.4970577 10.693359 5.6894531 10.693359 C 5.8582211 10.693359 6.0114701 10.724403 6.1464844 10.785156 C 6.284874 10.845916 6.4015837 10.929101 6.4960938 11.037109 C 6.5973545 11.155247 6.6745099 11.302998 6.7285156 11.478516 C 6.785897 11.650659 6.8144531 11.847539 6.8144531 12.070312 L 8.0195312 12.070312 C 8.0195312 11.709149 7.9709323 11.38953 7.8730469 11.109375 C 7.7785369 10.825849 7.6417846 10.581428 7.4628906 10.378906 C 7.3008735 10.200012 7.1070084 10.054746 6.8808594 9.9433594 C 6.6784432 9.8406407 6.4527129 9.7729465 6.2070312 9.7324219 L 6.2070312 8.75 C 6.2070312 8.6482829 6.1251541 8.5664062 6.0234375 8.5664062 L 5.4199219 8.5664062 C 5.4135646 8.5664062 5.408531 8.5657817 5.4023438 8.5664062 z "
       transform="translate(-0.93207259)" />
  </g>
  <metadata
     id="metadata9318">
    <rdf:RDF>
      <cc:Work
         rdf:about="">
        <dc:title>Windows Terminal</dc:title>
      </cc:Work>
    </rdf:RDF>
  </metadata>
</svg>
